# 3ds Max Wavefront OBJ Exporter v0.97b - (c)2007 guruware
# File Created: 26.11.2020 17:30:41

mtllib Gras.mtl

#
# object Rectangle001
#

v  6.2974 3.7431 5.5795
v  -0.7047 3.7431 5.5795
v  -0.7047 2.6523 2.4447
v  6.2974 2.6523 2.4447
v  6.2974 2.6523 2.4444
v  -0.7047 2.6523 2.4444
v  -0.7047 2.6523 -0.7641
v  6.2974 2.6523 -0.7641
# 8 vertices

vn -0.0000 -0.9444 0.3287
vn -0.0000 -1.0000 0.0000
# 2 vertex normals

vt 1.0000 1.0000 0.0000
vt 0.0000 1.0000 0.0000
vt 0.0000 0.5058 1.0000
vt 1.0000 0.5058 1.0000
vt 0.0000 0.0000 1.0000
vt 1.0000 0.0000 1.0000
# 6 texture coords

o Rectangle001
g Rectangle001
usemtl Material__48
s 1
f 1/1/1 2/2/1 3/3/1 
f 1/1/1 3/3/1 4/4/1 
f 5/4/2 6/3/2 7/5/2 
f 5/4/2 7/5/2 8/6/2 
# 4 faces

#
# object Rectangle004
#

v  8.0390 -3.2761 5.5795
v  2.7075 1.2631 5.5795
v  2.0004 0.4324 2.4447
v  7.3318 -4.1067 2.4447
v  7.3318 -4.1067 2.4444
v  2.0004 0.4324 2.4444
v  2.0004 0.4324 -0.7641
v  7.3318 -4.1067 -0.7641
# 8 vertices

vn -0.6122 -0.7191 0.3287
vn -0.6483 -0.7614 -0.0000
# 2 vertex normals

vt 0.0000 1.0000 0.0000
vt 1.0000 1.0000 0.0000
vt 1.0000 0.5058 1.0000
vt 0.0000 0.5058 1.0000
vt 1.0000 0.0000 1.0000
vt 0.0000 0.0000 1.0000
# 6 texture coords

o Rectangle004
g Rectangle004
usemtl Material__48
s 1
f 9/7/3 10/8/3 11/9/3 
f 9/7/3 11/9/3 12/10/3 
f 13/10/4 14/9/4 15/11/4 
f 13/10/4 15/11/4 16/12/4 
# 4 faces

#
# object Rectangle006
#

v  3.2293 -0.6707 5.5795
v  3.1887 6.3312 5.5795
v  2.0978 6.3248 2.4447
v  2.1385 -0.6771 2.4447
v  2.1385 -0.6771 2.4444
v  2.0978 6.3248 2.4444
v  2.0978 6.3248 -0.7641
v  2.1385 -0.6771 -0.7641
# 8 vertices

vn -0.9444 -0.0055 0.3287
vn -1.0000 -0.0058 -0.0000
# 2 vertex normals

vt 1.0000 1.0000 0.0000
vt 0.0000 1.0000 0.0000
vt 0.0000 0.5058 1.0000
vt 1.0000 0.5058 1.0000
vt 0.0000 0.0000 1.0000
vt 1.0000 0.0000 1.0000
# 6 texture coords

o Rectangle006
g Rectangle006
usemtl Material__48
s 1
f 17/13/5 18/14/5 19/15/5 
f 17/13/5 19/15/5 20/16/5 
f 21/16/6 22/15/6 23/17/6 
f 21/16/6 23/17/6 24/18/6 
# 4 faces

#
# object Rectangle002
#

v  9.0199 8.2658 5.4756
v  4.4499 2.9607 5.4756
v  5.2764 2.2487 2.3409
v  9.8464 7.5538 2.3409
v  9.8464 7.5538 2.3405
v  5.2764 2.2487 2.3405
v  5.2764 2.2487 -0.8679
v  9.8464 7.5538 -0.8679
# 8 vertices

vn 0.7156 -0.6164 0.3287
vn 0.7576 -0.6527 -0.0000
# 2 vertex normals

vt 0.0000 1.0000 0.0000
vt 1.0000 1.0000 0.0000
vt 1.0000 0.5058 1.0000
vt 0.0000 0.5058 1.0000
vt 1.0000 0.0000 1.0000
vt 0.0000 0.0000 1.0000
# 6 texture coords

o Rectangle002
g Rectangle002
usemtl Material__48
s 1
f 25/19/7 26/20/7 27/21/7 
f 25/19/7 27/21/7 28/22/7 
f 29/22/8 30/21/8 31/23/8 
f 29/22/8 31/23/8 32/24/8 
# 4 faces

#
# object Rectangle005
#

v  2.9127 6.2274 5.5795
v  -2.4188 10.7665 5.5795
v  -3.1259 9.9359 2.4447
v  2.2056 5.3968 2.4447
v  2.2056 5.3968 2.4444
v  -3.1259 9.9359 2.4444
v  -3.1259 9.9359 -0.7641
v  2.2056 5.3968 -0.7641
# 8 vertices

vn -0.6122 -0.7191 0.3287
vn -0.6483 -0.7614 -0.0000
# 2 vertex normals

vt 1.0000 1.0000 0.0000
vt 0.0000 1.0000 0.0000
vt 0.0000 0.5058 1.0000
vt 1.0000 0.5058 1.0000
vt 0.0000 0.0000 1.0000
vt 1.0000 0.0000 1.0000
# 6 texture coords

o Rectangle005
g Rectangle005
usemtl Material__48
s 1
f 33/25/9 34/26/9 35/27/9 
f 33/25/9 35/27/9 36/28/9 
f 37/28/10 38/27/10 39/29/10 
f 37/28/10 39/29/10 40/30/10 
# 4 faces

#
# object Rectangle003
#

v  -0.6994 3.7611 5.7013
v  -5.2694 -1.5439 5.7013
v  -4.4429 -2.2559 2.5665
v  0.1271 3.0491 2.5665
v  0.1271 3.0491 2.5661
v  -4.4429 -2.2559 2.5661
v  -4.4429 -2.2559 -0.6423
v  0.1271 3.0491 -0.6423
# 8 vertices

vn 0.7156 -0.6164 0.3287
vn 0.7576 -0.6527 -0.0000
# 2 vertex normals

vt 1.0000 1.0000 0.0000
vt 0.0000 1.0000 0.0000
vt 0.0000 0.5058 1.0000
vt 1.0000 0.5058 1.0000
vt 0.0000 0.0000 1.0000
vt 1.0000 0.0000 1.0000
# 6 texture coords

o Rectangle003
g Rectangle003
usemtl Material__48
s 1
f 41/31/11 42/32/11 43/33/11 
f 41/31/11 43/33/11 44/34/11 
f 45/34/12 46/33/12 47/35/12 
f 45/34/12 47/35/12 48/36/12 
# 4 faces

